<svg xmlns="http://www.w3.org/2000/svg" viewBox="0 0 32 40" x="0px" y="0px"><title>Security protection</title><path d="M16,20a4,4,0,1,0-4-4A4,4,0,0,0,16,20Zm0-6a2,2,0,1,1-2,2A2,2,0,0,1,16,14Z"/><path d="M16,10a4,4,0,1,0-4-4A4,4,0,0,0,16,10Zm0-6a2,2,0,1,1-2,2A2,2,0,0,1,16,4Z"/><path d="M16,30a4,4,0,1,0-4-4A4,4,0,0,0,16,30Zm0-6a2,2,0,1,1-2,2A2,2,0,0,1,16,24Z"/><path d="M26,12a4,4,0,1,0,4,4A4,4,0,0,0,26,12Zm0,6a2,2,0,1,1,2-2A2,2,0,0,1,26,18Z"/><path d="M26,2a4,4,0,1,0,4,4A4,4,0,0,0,26,2Zm0,6a2,2,0,1,1,2-2A2,2,0,0,1,26,8Z"/><path d="M26,22a4,4,0,1,0,4,4A4,4,0,0,0,26,22Zm0,6a2,2,0,1,1,2-2A2,2,0,0,1,26,28Z"/><path d="M7,20a4,4,0,1,0-4-4A4,4,0,0,0,7,20Zm0-6a2,2,0,1,1-2,2A2,2,0,0,1,7,14Z"/><path d="M7,10A4,4,0,1,0,3,6,4,4,0,0,0,7,10ZM7,4A2,2,0,1,1,5,6,2,2,0,0,1,7,4Z"/><path d="M7,30a4,4,0,1,0-4-4A4,4,0,0,0,7,30Zm0-6a2,2,0,1,1-2,2A2,2,0,0,1,7,24Z"/><text x="0" y="47" fill="#000000" font-size="5px" font-weight="bold" font-family="'Helvetica Neue', Helvetica, Arial-Unicode, Arial, Sans-serif">Created by Lagot Design</text><text x="0" y="52" fill="#000000" font-size="5px" font-weight="bold" font-family="'Helvetica Neue', Helvetica, Arial-Unicode, Arial, Sans-serif">from the Noun Project</text></svg>